<svg width="40" height="40" viewBox="0 0 40 40" fill="none" xmlns="http://www.w3.org/2000/svg">
  <path
    d="M16.1001 6.66668C17.3628 6.27479 18.678 6.07808 20.0001 6.08334C21.3102 6.09213 22.6123 6.28857 23.8667 6.66668L24.4167 6.83334C25.0942 7.05628 25.752 7.33501 26.3834 7.66668V6.83334C26.3834 5.90509 26.0147 5.01485 25.3583 4.35847C24.7019 3.70209 23.8117 3.33334 22.8834 3.33334H17.1001C16.6407 3.33181 16.1857 3.42247 15.762 3.59996C15.3383 3.77746 14.9545 4.03818 14.6334 4.36668C13.9714 5.01801 13.594 5.90473 13.5834 6.83334V7.63334C14.228 7.30995 14.8967 7.03692 15.5834 6.81668C15.7501 6.74917 15.9232 6.69891 16.1001 6.66668Z"
    fill="white" />
  <path
    d="M26.3834 9.53335C25.6007 9.03538 24.7615 8.63253 23.8834 8.33335C22.6291 7.92962 21.3176 7.7326 20 7.75001C18.6711 7.72466 17.3473 7.92183 16.0834 8.33335C15.2064 8.61371 14.3669 8.99989 13.5834 9.48335C12.7373 10.0022 11.9543 10.6174 11.25 11.3167C10.0968 12.4631 9.18198 13.8265 8.55837 15.3283C7.93477 16.8301 7.61473 18.4406 7.61671 20.0667V34.75C7.61665 34.995 7.66524 35.2375 7.75966 35.4635C7.85407 35.6895 7.99243 35.8946 8.16671 36.0667C8.33768 36.2367 8.54051 36.3713 8.76358 36.4628C8.98666 36.5544 9.22559 36.601 9.46671 36.6H30.5334C31.0251 36.6009 31.4976 36.4095 31.85 36.0667C32.1899 35.7123 32.3808 35.241 32.3834 34.75V20.1333C32.3885 18.5083 32.0715 16.8983 31.4507 15.3964C30.8299 13.8946 29.9177 12.5306 28.7667 11.3833C28.0495 10.6731 27.2493 10.0519 26.3834 9.53335ZM19.15 13.5833H20.8167C21.1498 13.5964 21.4642 13.7402 21.692 13.9835C21.9197 14.2269 22.0424 14.5502 22.0334 14.8833C22.0246 15.2075 21.8886 15.5152 21.6546 15.7398C21.4207 15.9644 21.1077 16.0878 20.7834 16.0833H19.0334C18.8692 16.079 18.7075 16.0424 18.5575 15.9756C18.4075 15.9087 18.2721 15.813 18.1591 15.6938C18.0461 15.5746 17.9577 15.4343 17.899 15.281C17.8402 15.1276 17.8123 14.9642 17.8167 14.8C17.8421 14.4655 17.9943 14.1534 18.2421 13.9273C18.4899 13.7011 18.8146 13.5781 19.15 13.5833ZM15 27.3167C15.0085 26.9967 15.1394 26.6921 15.3657 26.4657C15.5921 26.2393 15.8967 26.1084 16.2167 26.1H23.75C24.076 26.1029 24.3876 26.2347 24.6167 26.4667C24.8386 26.6943 24.9639 26.9988 24.9667 27.3167V27.6833H15V27.3167ZM15 34.1667V30.1833H25V34.1667H15Z"
    fill="white" />
  <path
    d="M3.33337 24.3V30.2167C3.33293 30.9908 3.63846 31.7336 4.18337 32.2834C4.66594 32.7653 5.3037 33.0605 5.98337 33.1167V21.45C5.31354 21.5067 4.68647 21.8025 4.21671 22.2834C3.66862 22.8133 3.35128 23.5378 3.33337 24.3Z"
    fill="white" />
  <path
    d="M35.85 22.25C35.3666 21.7667 34.7304 21.4663 34.05 21.4V33.0667C34.7308 33.0149 35.37 32.719 35.85 32.2334C36.3817 31.6844 36.6752 30.9476 36.6667 30.1834V24.3C36.6727 23.9213 36.6037 23.5452 36.4635 23.1933C36.3233 22.8414 36.1148 22.5208 35.85 22.25Z"
    fill="white" />
</svg>
  