<svg width="40" height="40" viewBox="0 0 40 40" fill="none" xmlns="http://www.w3.org/2000/svg">
  <path
    d="M19.9667 3.33334C12.5334 3.33334 6.48337 9.38335 6.48337 16.8334C6.48337 19.4834 7.25 21.9667 8.58333 24.05C9.06667 24.8167 9.61667 25.5167 10.25 26.1667L10.7667 26.6834C10.9333 26.8167 11.0833 26.9667 11.25 27.1167C12 27.75 12.8334 28.3 13.7167 28.7667C13.9334 28.8834 14.15 28.9834 14.3667 29.0834C14.5833 29.1834 14.8 29.2833 15.0333 29.3667C15.8167 29.6833 16.65 29.9333 17.5 30.0833C18.3 30.2333 19.1167 30.3167 19.9667 30.3167C20.8334 30.3167 21.6667 30.2334 22.4833 30.0667C23.35 29.9167 24.1667 29.6833 24.95 29.3667V29.35C25.1667 29.2667 25.4 29.1667 25.6167 29.0667C25.8333 28.9667 26.05 28.85 26.2667 28.75C26.3167 28.7167 26.35 28.7 26.4 28.6833C26.9833 28.35 27.5333 28 28.05 27.6333C28.2667 27.45 28.4667 27.3 28.6667 27.1333C28.85 26.9667 29.0333 26.8167 29.2167 26.65C29.3833 26.4833 29.5667 26.3 29.7333 26.1333C30.35 25.4833 30.9 24.7833 31.4 24.0167C32.7 21.9333 33.4667 19.4667 33.4667 16.8334C33.4667 9.38335 27.4167 3.33334 19.9667 3.33334ZM26.3667 15.8167L23.7167 18.4167C23.6 18.5167 23.55 18.6833 23.5833 18.85L24.2167 22.5C24.2833 22.9 23.8667 23.2 23.5 23.0167L20.2167 21.2833C20.0667 21.2167 19.9 21.2167 19.75 21.2833L16.4667 23.0167C16.1 23.2 15.6834 22.9 15.75 22.5L16.3833 18.85C16.4 18.6833 16.35 18.5333 16.25 18.4167L13.5833 15.8167C13.3 15.5333 13.45 15.05 13.85 14.9833L17.5333 14.45C17.6833 14.4334 17.8167 14.3334 17.9 14.1834L19.5333 10.85C19.7167 10.4834 20.2333 10.4834 20.4167 10.85L22.05 14.1834C22.1334 14.3334 22.2667 14.4334 22.4167 14.45L26.1 14.9833C26.5 15.05 26.65 15.5333 26.3667 15.8167Z"
    fill="white" />
  <path
    d="M9.38338 27.65C8.75005 27.0333 8.16672 26.3667 7.66672 25.6333L4.76668 30.6666C4.53335 31.0666 4.53337 31.55 4.78337 31.95C5.0167 32.3333 5.41669 32.5666 5.91669 32.5333L10.0167 32.3167L11.8834 35.9833C12.0834 36.3833 12.5 36.65 12.9667 36.6667C12.9667 36.6667 12.9834 36.6667 13 36.6667C13.4334 36.6667 13.8501 36.4333 14.0834 36.0333L16.6334 31.6C15.8001 31.4166 14.9834 31.1667 14.2 30.8333C12.3834 30.0833 10.75 29 9.38338 27.65Z"
    fill="white" />
  <path
    d="M35.25 30.6667L32.3167 25.6C31.8001 26.3333 31.2334 27.0167 30.5834 27.6167C29.2167 28.9833 27.5834 30.0667 25.7834 30.8167C25.0001 31.15 24.2 31.4 23.3667 31.5834L25.9334 36.0333C26.15 36.4333 26.5667 36.6667 27.0167 36.6667C27.0167 36.6667 27.0334 36.6667 27.0501 36.6667C27.5001 36.65 27.9167 36.3833 28.1167 35.9833L29.9834 32.3167L34.1 32.5333C34.5834 32.5666 34.9834 32.3334 35.2334 31.95C35.4667 31.55 35.4667 31.0667 35.25 30.6667Z"
    fill="white" />
</svg>
  