<svg width="40" height="40" viewBox="0 0 40 40" fill="none" xmlns="http://www.w3.org/2000/svg">
  <path
    d="M14.4667 4.81669H8.86669C6.63336 4.81669 4.81668 6.63334 4.81668 8.86668V14.4667C4.81668 16.7 6.63336 18.5166 8.86669 18.5166H14.4667C16.7 18.5166 18.5167 16.7 18.5167 14.4667V8.86668C18.5167 6.63334 16.7 4.81669 14.4667 4.81669Z"
    fill="white" />
  <path
    d="M31.1333 4.81668H25.5334C23.3 4.81668 21.4833 6.63334 21.4833 8.86667V14.4666C21.4833 16.7 23.3 18.5166 25.5334 18.5166H31.1333C33.3667 18.5166 35.1833 16.7 35.1833 14.4666V8.86667C35.1833 6.63334 33.3667 4.81668 31.1333 4.81668Z"
    fill="white" />
  <path
    d="M14.4666 21.4834H8.86666C6.63333 21.4834 4.81665 23.3 4.81665 25.5333V31.1333C4.81665 33.3666 6.63333 35.1833 8.86666 35.1833H14.4666C16.7 35.1833 18.5167 33.3666 18.5167 31.1333V25.5333C18.5167 23.3 16.7 21.4834 14.4666 21.4834Z"
    fill="white" />
  <path
    d="M31.1333 21.4834H25.5334C23.3 21.4834 21.4833 23.3 21.4833 25.5333V31.1333C21.4833 33.3666 23.3 35.1833 25.5334 35.1833H31.1333C33.3667 35.1833 35.1833 33.3666 35.1833 31.1333V25.5333C35.1833 23.3 33.3667 21.4834 31.1333 21.4834Z"
    fill="white" />
</svg>
  