<svg width="22" height="22" viewBox="0 0 22 22" fill="none" xmlns="http://www.w3.org/2000/svg">
  <path fill-rule="evenodd" clip-rule="evenodd"
    d="M6.87451 0H15.1245C18.9209 0 21.9995 3.07862 21.9995 6.875V15.125C21.9995 18.9214 18.9209 22 15.1245 22H6.87451C3.07814 22 -0.000488281 18.9214 -0.000488281 15.125V6.875C-0.000488281 3.07862 3.07814 0 6.87451 0ZM15.1245 19.9375C17.7783 19.9375 19.937 17.7787 19.937 15.125V6.875C19.937 4.22125 17.7783 2.0625 15.1245 2.0625H6.87451C4.22076 2.0625 2.06201 4.22125 2.06201 6.875V15.125C2.06201 17.7787 4.22076 19.9375 6.87451 19.9375H15.1245Z"
    fill="white" />
  <path fill-rule="evenodd" clip-rule="evenodd"
    d="M5.49951 11C5.49951 7.96263 7.96214 5.5 10.9995 5.5C14.0369 5.5 16.4995 7.96263 16.4995 11C16.4995 14.0374 14.0369 16.5 10.9995 16.5C7.96214 16.5 5.49951 14.0374 5.49951 11ZM7.56201 11C7.56201 12.8948 9.10476 14.4375 10.9995 14.4375C12.8943 14.4375 14.437 12.8948 14.437 11C14.437 9.10388 12.8943 7.5625 10.9995 7.5625C9.10476 7.5625 7.56201 9.10388 7.56201 11Z"
    fill="white" />
  <circle cx="16.9121" cy="5.08761" r="0.732875" fill="white" />
</svg>
  