<svg width="34" height="34" viewBox="0 0 34 34" fill="none" xmlns="http://www.w3.org/2000/svg">
  <path
    d="M29.55 13.8167V10.3333C29.5501 8.9025 28.9839 7.52979 27.9753 6.51492C26.9667 5.50005 25.5975 4.92547 24.1667 4.91667H20.1667C19.8904 3.73825 19.2239 2.68783 18.2754 1.93596C17.3269 1.1841 16.1521 0.774923 14.9417 0.774923C13.7313 0.774923 12.5565 1.1841 11.608 1.93596C10.6595 2.68783 9.99296 3.73825 9.71669 4.91667H5.71669C4.28589 4.92547 2.91668 5.50005 1.90806 6.51492C0.899437 7.52979 0.333332 8.9025 0.333359 10.3333V14.8667C0.333359 15.1982 0.465055 15.5161 0.699476 15.7506C0.933896 15.985 1.25184 16.1167 1.58336 16.1167C2.34959 16.1255 3.0812 16.4372 3.61834 16.9837C4.15547 17.5302 4.45448 18.2671 4.45003 19.0333C4.46114 19.4175 4.39533 19.8001 4.25645 20.1585C4.11758 20.5169 3.90846 20.8439 3.64137 21.1203C3.37428 21.3967 3.05463 21.6169 2.7012 21.768C2.34778 21.919 1.96771 21.9979 1.58336 22C1.25318 22.0043 0.93774 22.1374 0.704249 22.3709C0.470758 22.6044 0.337676 22.9198 0.333359 23.25V27.7833C0.32892 29.2171 0.893075 30.5941 1.90217 31.6125C2.91127 32.631 4.283 33.2079 5.71669 33.2167H10.8167C11.1308 33.2 11.4272 33.0655 11.6465 32.8399C11.8658 32.6144 11.9921 32.3145 12 32C12 31.2397 12.302 30.5106 12.8397 29.973C13.3773 29.4354 14.1064 29.1333 14.8667 29.1333C15.627 29.1333 16.3561 29.4354 16.8937 29.973C17.4313 30.5106 17.7334 31.2397 17.7334 32C17.7377 32.3302 17.8708 32.6456 18.1042 32.8791C18.3377 33.1126 18.6532 33.2457 18.9834 33.25H24.1667C25.6004 33.2412 26.9721 32.6643 27.9812 31.6458C28.9903 30.6274 29.5545 29.2504 29.55 27.8167V24.3333C30.7251 24.0428 31.7689 23.3671 32.5151 22.414C33.2612 21.4609 33.6666 20.2854 33.6666 19.075C33.6666 17.8646 33.2612 16.689 32.5151 15.736C31.7689 14.7829 30.7251 14.1072 29.55 13.8167Z"
    fill="white" />
</svg>
  