<svg width="43" height="43" viewBox="0 0 43 43" fill="none" xmlns="http://www.w3.org/2000/svg">
  <path
    d="M30.5236 26.2158C30.9623 25.5895 31.3659 24.9394 31.7325 24.2684C32.1474 23.4536 32.5092 22.613 32.8156 21.7516C33.9908 18.6832 34.5533 15.4144 34.4714 12.1297C34.4362 11.2602 34.0871 10.4329 33.489 9.80092C32.8908 9.16892 32.0839 8.77497 31.2177 8.69198C27.9365 8.41886 24.6336 8.79268 21.4964 9.79224C20.6401 10.0745 19.8036 10.4138 18.9927 10.808C18.2876 11.1541 17.6054 11.5244 16.9697 11.9196C14.1871 13.7784 11.878 16.2626 10.227 19.1734L22.8294 32.4884C25.848 31.0259 28.4828 28.8778 30.5236 26.2158ZM20.7399 21.8675C20.1157 21.2128 19.7 20.3874 19.5455 19.4961C19.3911 18.6048 19.5048 17.6876 19.8723 16.861C20.2399 16.0344 20.8446 15.3356 21.6099 14.8532C22.3751 14.3708 23.2664 14.1265 24.1707 14.1514C25.075 14.1763 25.9515 14.4691 26.6891 14.9929C27.4266 15.5166 27.9921 16.2476 28.3136 17.0932C28.6351 17.9387 28.6983 18.8607 28.4951 19.7422C28.2919 20.6237 27.8314 21.425 27.1722 22.0444C26.7382 22.4551 26.2276 22.7764 25.6695 22.9898C25.1114 23.2032 24.5167 23.3046 23.9194 23.2881C23.3221 23.2717 22.7339 23.1378 22.1884 22.8941C21.6429 22.6503 21.1507 22.3015 20.7399 21.8675Z"
    fill="white" />
  <path
    d="M7.11157 22.2827C7.79595 21.0036 8.57853 19.7795 9.45226 18.6215C9.57862 18.4428 9.65213 18.2321 9.6644 18.0135C9.67666 17.7949 9.62718 17.5773 9.52162 17.3855C9.41839 17.1918 9.26186 17.0316 9.07053 16.924C8.8792 16.8164 8.66107 16.7658 8.44189 16.7781L7.75732 16.8065C7.24726 16.8104 6.74491 16.9314 6.28895 17.16C5.83299 17.3887 5.43559 17.7189 5.12735 18.1253L2.25599 22.2199C2.00007 22.588 1.84112 23.0148 1.79383 23.4606C1.74653 23.9065 1.81243 24.3571 1.98542 24.7708C2.1573 25.1767 2.42771 25.5333 2.77217 25.8083C3.11663 26.0833 3.52425 26.2681 3.95812 26.3459L4.31025 26.4027C4.58222 26.4554 4.86406 26.4081 5.10396 26.2696C5.34387 26.1311 5.5257 25.9106 5.61604 25.6487C6.0468 24.4978 6.54621 23.3738 7.11157 22.2827Z"
    fill="white" />
  <path
    d="M19.5306 35.4041C20.8595 34.8087 22.1401 34.1107 23.3607 33.3165C23.5461 33.2002 23.7605 33.1384 23.9794 33.1381C24.1983 33.1379 24.4129 33.1993 24.5986 33.3152C24.7864 33.4289 24.9377 33.594 25.0346 33.791C25.1316 33.9879 25.1701 34.2085 25.1457 34.4267L25.0798 35.1087C25.0232 35.6088 24.8541 36.0897 24.5851 36.5152C24.3162 36.9407 23.9543 37.2997 23.5268 37.5653L19.2806 40.2073C18.8989 40.4426 18.4641 40.5779 18.0163 40.6006C17.5685 40.6233 17.1222 40.5328 16.7187 40.3373C16.4317 40.1985 16.1731 40.0075 15.9561 39.774C15.5703 39.363 15.3246 38.8403 15.2544 38.281L15.217 37.9263C15.1793 37.6518 15.242 37.373 15.3935 37.1411C15.545 36.9092 15.7751 36.7397 16.0416 36.6639C17.2313 36.3219 18.3968 35.901 19.5306 35.4041Z"
    fill="white" />
  <path
    d="M21.211 33.0334C20.9842 33.1333 20.7568 33.2567 20.518 33.3681C19.3432 34.0276 18.0789 34.5131 16.7646 34.8093C16.692 34.8135 16.6202 34.8274 16.5513 34.8506C15.9912 34.9175 15.4232 34.8532 14.8923 34.6626C14.3615 34.472 13.8822 34.1604 13.4926 33.7525L8.50895 28.487C8.11899 28.0762 7.8325 27.5784 7.67319 27.0348C7.51387 26.4912 7.48631 25.9175 7.59279 25.3612C7.59936 25.2886 7.61723 25.2175 7.64575 25.1504C8.00964 23.8586 8.55982 22.6266 9.27896 21.4934C9.41535 21.2496 9.55109 21.0293 9.66327 20.8084L21.211 33.0334Z"
    fill="white" />
</svg>
  