<svg width="24" height="25" viewBox="0 0 24 25" fill="none" xmlns="http://www.w3.org/2000/svg">
<path d="M11.6801 17.43L15.7501 21.5L17.5401 19.71C17.6443 19.6062 17.7243 19.4807 17.7744 19.3424C17.8245 19.2041 17.8435 19.0565 17.8301 18.91L17.1801 11.8" stroke="#1E3787" stroke-width="2" stroke-linecap="round" stroke-linejoin="round"/>
<path d="M9.36994 5.21L7.99994 6.63M9.36994 17.96C9.4629 18.0537 9.5735 18.1281 9.69536 18.1789C9.81722 18.2297 9.94793 18.2558 10.0799 18.2558C10.212 18.2558 10.3427 18.2297 10.4645 18.1789C10.5864 18.1281 10.697 18.0537 10.7899 17.96L18.6999 10.05C20.1713 8.57754 20.9984 6.58157 20.9999 4.5C20.9999 4.23478 20.8946 3.98043 20.707 3.79289C20.5195 3.60536 20.2652 3.5 19.9999 3.5C17.9184 3.50151 15.9224 4.32867 14.4499 5.8L6.53994 13.71C6.44621 13.803 6.37182 13.9136 6.32105 14.0354C6.27028 14.1573 6.24414 14.288 6.24414 14.42C6.24414 14.552 6.27028 14.6827 6.32105 14.8046C6.37182 14.9264 6.44621 15.037 6.53994 15.13L9.36994 17.96ZM17.8699 16.5L19.2899 15.09L17.8699 16.5Z" stroke="#1E3787" stroke-width="2" stroke-linecap="round" stroke-linejoin="round"/>
<path d="M12.75 7.31997L5.59 6.66997C5.44353 6.6565 5.2959 6.67551 5.15761 6.72564C5.01933 6.77576 4.89381 6.85578 4.79 6.95997L3 8.74997L7.09 12.84" stroke="#1E3787" stroke-width="2" stroke-linecap="round" stroke-linejoin="round"/>
</svg>
