<svg width="40" height="40" viewBox="0 0 40 40" fill="none" xmlns="http://www.w3.org/2000/svg">
  <path
    d="M29.8833 10.3333H26.3833V9.73334C26.3833 6.20001 23.5166 3.33334 20 3.33334C16.4833 3.33334 13.6167 6.20001 13.6167 9.73334V10.3333H10.1167C6.38333 10.3333 3.33331 13.3833 3.33331 17.1167V29.8833C3.33331 33.6333 6.38333 36.6667 10.1167 36.6667H29.8833C33.6166 36.6667 36.6666 33.6333 36.6666 29.8833V17.1167C36.6666 13.3833 33.6166 10.3333 29.8833 10.3333ZM16.1167 9.73334C16.1167 7.58334 17.85 5.83334 20 5.83334C22.15 5.83334 23.8833 7.58334 23.8833 9.73334V10.3333H16.1167V9.73334Z"
    fill="white" />
</svg>
  