<svg width="40" height="40" viewBox="0 0 40 40" fill="none" xmlns="http://www.w3.org/2000/svg">
  <path
    d="M14.7334 19.3166C18.2 19.3166 21.0167 16.4999 21.0167 13.0333C21.0167 9.5666 18.2 6.74994 14.7334 6.74994C11.2667 6.74994 8.45004 9.5666 8.45004 13.0333C8.45004 16.4999 11.2667 19.3166 14.7334 19.3166Z"
    fill="white" />
  <path
    d="M26.9334 29.1333V31.9999C26.9334 32.6833 26.3834 33.2499 25.6834 33.2499H4.58337C3.90004 33.2499 3.33337 32.6833 3.33337 31.9999V29.1333C3.33337 25.1166 6.60003 21.8499 10.6167 21.8499H19.65C20.4667 21.8499 21.25 21.9833 21.9834 22.2499C21.9834 22.2499 21.9834 22.2333 22 22.2499C24.8667 23.2166 26.9334 25.9333 26.9334 29.1333Z"
    fill="white" />
  <path
    d="M26.9334 29.1333V31.9999C26.9334 32.6833 26.3834 33.2499 25.6834 33.2499H4.58337C3.90004 33.2499 3.33337 32.6833 3.33337 31.9999V29.1333C3.33337 25.1166 6.60003 21.8499 10.6167 21.8499H19.65C20.4667 21.8499 21.25 21.9833 21.9834 22.2499C21.9834 22.2499 21.9834 22.2333 22 22.2499C24.8667 23.2166 26.9334 25.9333 26.9334 29.1333Z"
    fill="white" />
  <path
    d="M36.6667 27.7V30.05C36.6667 30.6 36.2167 31.05 35.6667 31.05H29.4333V29.1333C29.4333 27.45 29 25.85 28.25 24.4666C27.9333 23.9 27.5833 23.3666 27.1833 22.8833C26.9 22.5666 26.6167 22.25 26.3167 21.9833H30.95C31.1333 21.9833 31.3 21.9833 31.4667 22.0166C31.6833 22.0333 31.9 22.0666 32.1167 22.1166C33.3833 22.3833 34.4833 23.0833 35.3 24.0166C35.4333 24.1666 35.5667 24.3333 35.6833 24.5166C35.7 24.5166 35.7 24.5166 35.6833 24.5333C36 25 36.25 25.5 36.4167 26.05C36.4667 26.2333 36.5166 26.4166 36.55 26.6C36.6333 26.95 36.6667 27.3166 36.6667 27.7Z"
    fill="white" />
  <path
    d="M27.3001 19.0832C30.0523 19.0832 32.2834 16.8521 32.2834 14.0999C32.2834 11.3477 30.0523 9.11658 27.3001 9.11658C24.5478 9.11658 22.3167 11.3477 22.3167 14.0999C22.3167 16.8521 24.5478 19.0832 27.3001 19.0832Z"
    fill="white" />
</svg>
  